# xmcd CD database file
#
# Track frame offsets:
#	150
#	17889
#	54940
#	88020
#	140344
#	187696
#	212460
#	240814
#	277083
#
# Disc length: 3977 seconds
#
# Revision: 0
# Processed by: cddbd v1.5PL3 Copyright (c) Steve Scherf et al.
# Submitted via: CDex 1.51
#
DISCID=6c0f8709
DTITLE=Tony Woods Project - Lowlands
DYEAR=2004
DGENRE=Jazz
TTITLE0=Lowlands
TTITLE1=Breakthrough
TTITLE2=Presence (at Christmas)
TTITLE3=Penny's Whistle
TTITLE4=Prayer
TTITLE5=Country Dance
TTITLE6=Rollo's Monkey
TTITLE7=Old Joe Clark
TTITLE8=Chocolat
EXTD=YEAR: 2004
EXTT0=
EXTT1=
EXTT2=
EXTT3=
EXTT4=
EXTT5=
EXTT6=
EXTT7=
EXTT8=
PLAYORDER=
